# Blender 4.0.1
# www.blender.org
mtllib crow1.mtl
o Cylinder
v -0.000000 0.398865 -7.955145
v -0.000000 0.619356 -6.716434
v 0.372985 0.244370 -7.955145
v 0.437951 0.437951 -6.716434
v 0.527481 -0.128616 -7.955145
v 0.619356 -0.000000 -6.716434
v 0.372985 -0.501601 -7.955145
v 0.437951 -0.437951 -6.716434
v -0.000000 -0.656097 -7.955145
v -0.000000 -0.619356 -6.716434
v -0.372985 -0.501601 -7.955145
v -0.437951 -0.437951 -6.716434
v -0.527481 -0.128616 -7.955145
v -0.619356 -0.000000 -6.716434
v -0.372985 0.244370 -7.955145
v -0.437951 0.437951 -6.716434
v -0.000000 -0.666258 -8.572913
v 0.029626 -0.678529 -8.572913
v 0.041897 -0.708155 -8.572913
v 0.029626 -0.737781 -8.572913
v -0.000000 -0.750053 -8.572913
v -0.029626 -0.737781 -8.572913
v -0.041897 -0.708155 -8.572913
v -0.029626 -0.678529 -8.572913
v 0.000000 1.438420 -6.047927
v 0.799994 1.107051 -6.047927
v 1.131363 0.307057 -6.047927
v 0.799994 -0.492937 -6.047927
v 0.000000 -0.824306 -6.047927
v -0.799994 -0.492937 -6.047927
v -1.131363 0.307057 -6.047927
v -0.799994 1.107051 -6.047927
v -0.000000 1.718883 -4.020537
v 0.998312 1.305369 -4.020537
v 1.411826 0.307057 -4.020537
v 0.998312 -0.691255 -4.020537
v -0.000000 -1.104769 -4.020537
v -0.998312 -0.691255 -4.020537
v -1.411826 0.307057 -4.020537
v -0.998312 1.305369 -4.020537
v -0.000000 1.438420 -3.336526
v 0.799994 1.107051 -3.336526
v 1.131363 0.307057 -3.336526
v 0.799994 -0.492937 -3.336526
v -0.000000 -0.824306 -3.336526
v -0.799994 -0.492937 -3.336526
v -1.131363 0.307057 -3.336526
v -0.799994 1.107051 -3.336526
v -0.000000 1.438420 -3.336526
v 0.799994 1.107051 -3.336526
v 1.131363 0.307057 -3.336526
v 0.799994 -0.492937 -3.336526
v -0.000000 -0.824306 -3.336526
v -0.799994 -0.492937 -3.336526
v -1.131363 0.307057 -3.336526
v -0.799994 1.107051 -3.336526
v -0.000000 2.299366 -2.188629
v 1.408776 1.715833 -2.188629
v 1.992310 0.307057 -2.188629
v 1.408776 -1.101719 -2.188629
v -0.000000 -1.685253 -2.188629
v -1.408776 -1.101719 -2.188629
v -1.992310 0.307057 -2.188629
v -1.408776 1.715833 -2.188629
v -0.000001 2.299366 2.271911
v 1.408775 1.715832 2.271911
v 1.992309 0.307057 2.271911
v 1.408775 -1.101719 2.271911
v -0.000001 -1.685253 2.271911
v -1.408776 -1.101719 2.271911
v -1.992310 0.307057 2.271911
v -1.408776 1.715832 2.271911
v -0.000000 1.242286 4.332908
v 0.661307 0.968364 4.332908
v 0.935230 0.307057 4.332908
v 0.661307 -0.354251 4.332908
v -0.000000 -0.628173 4.332908
v -0.661308 -0.354251 4.332908
v -0.935230 0.307057 4.332908
v -0.661308 0.968364 4.332908
v -0.000000 0.582797 5.195897
v 0.420008 0.502034 5.195897
v 0.593981 0.307057 5.195897
v 0.420008 0.112079 5.195897
v -0.000000 0.031316 5.195897
v -0.420008 0.112079 5.195897
v -0.593981 0.307057 5.195897
v -0.420008 0.502034 5.195897
v -0.000002 0.715282 7.387411
v 1.034880 0.595716 7.387411
v 1.463542 0.307056 7.387411
v 1.034880 0.018397 7.387411
v -0.000002 -0.101170 7.387411
v -1.034883 0.018397 7.387411
v -1.463545 0.307056 7.387411
v -1.034883 0.595716 7.387411
v -0.000002 1.001903 8.878860
v 1.761485 0.798388 8.878860
v 2.491117 0.307056 8.878860
v 1.761485 -0.184275 8.878860
v -0.000002 -0.387791 8.878860
v -1.761488 -0.184275 8.878860
v -2.491120 0.307056 8.878860
v -1.761488 0.798388 8.878860
v -0.000002 1.001903 11.798473
v 1.761485 0.798388 11.431091
v 2.491117 0.307056 11.007153
v 1.761485 -0.184275 11.431091
v -0.000002 -0.387791 11.798473
v -1.761488 -0.184275 11.431091
v -2.491120 0.307056 11.007153
v -1.761488 0.798388 11.431091
v -1.298366 0.307057 -5.475581
v -0.918083 1.225140 -5.475581
v -0.000000 -0.991309 -5.475581
v -0.918083 -0.611026 -5.475581
v 1.298366 0.307057 -5.475581
v 0.918083 -0.611026 -5.475581
v -0.000000 1.605423 -5.475581
v 0.918083 1.225140 -5.475581
v 1.992310 0.307057 -2.188629
v 1.408776 1.715833 -2.188629
v -1.408776 1.715833 -2.188629
v -1.992310 0.307057 -2.188629
v 1.992309 0.307057 2.271911
v 1.408775 1.715832 2.271911
v -1.408776 1.715832 2.271911
v -1.992310 0.307057 2.271911
v 5.914814 1.255102 -2.623634
v 5.942704 2.496568 -2.623634
v -5.942704 2.496568 -2.623635
v -5.914814 1.255102 -2.623635
v 5.914814 1.255102 1.307160
v 5.942704 2.496568 1.307160
v -5.942704 2.496568 1.307159
v -5.914814 1.255102 1.307159
v 5.914814 1.255102 -2.623634
v 5.942704 2.496568 -2.623634
v -5.942704 2.496568 -2.623635
v -5.914814 1.255102 -2.623635
v 5.914814 1.255102 1.307160
v 5.942704 2.496568 1.307160
v -5.942704 2.496568 1.307159
v -5.914814 1.255102 1.307159
v 10.576861 1.365780 -0.505146
v 10.595078 2.176636 -0.505146
v -10.595078 2.176636 -0.505147
v -10.576861 1.365780 -0.505147
v 10.576861 1.365780 2.062232
v 10.595078 2.176636 2.062232
v -10.595078 2.176636 2.062231
v -10.576861 1.365780 2.062231
v 13.249236 1.466699 1.474134
v 13.260224 1.955808 1.474134
v -13.260224 1.955808 1.474133
v -13.249236 1.466699 1.474133
v 13.249236 1.466699 3.022778
v 13.260224 1.955808 3.022778
v -13.260224 1.955808 3.022776
v -13.249236 1.466699 3.022776
vn -0.0000 0.8483 -0.5296
vn -0.0000 0.8367 -0.5477
vn 0.6269 0.5969 -0.5007
vn 0.6099 0.6203 -0.4933
vn 0.9304 -0.0381 -0.3646
vn 0.9300 0.0311 -0.3662
vn 0.6691 -0.7141 -0.2058
vn 0.7415 -0.6632 -0.1012
vn -0.0000 -0.9903 -0.1391
vn -0.0000 -0.9958 0.0915
vn -0.6691 -0.7141 -0.2058
vn -0.7415 -0.6632 -0.1012
vn -0.9304 -0.0381 -0.3646
vn -0.9300 0.0311 -0.3662
vn -0.6817 -0.6454 -0.3444
vn -0.8966 0.0250 -0.4421
vn -0.6269 0.5969 -0.5007
vn -0.6099 0.6203 -0.4933
vn 0.5684 -0.1103 -0.8153
vn 0.2991 0.2331 -0.9253
vn -0.0000 0.3180 -0.9481
vn -0.0000 -0.0000 -1.0000
vn -0.5684 -0.1103 -0.8153
vn -0.2991 0.2331 -0.9253
vn -0.3790 -0.9149 0.1391
vn -0.0000 -0.9886 0.1504
vn 0.8673 -0.3592 -0.3447
vn -0.8673 -0.3592 -0.3447
vn 0.3790 -0.9149 0.1391
vn -0.6961 0.6961 -0.1756
vn -0.9845 -0.0000 -0.1756
vn -0.9891 -0.0000 0.1470
vn -0.6994 0.6994 0.1470
vn 0.6817 -0.6454 -0.3444
vn -0.0000 -0.9582 -0.2862
vn -0.6021 0.6203 -0.5027
vn 0.6021 0.6203 -0.5027
vn 0.8966 0.0250 -0.4421
vn -0.0000 0.8535 -0.5212
vn -0.6994 -0.6994 0.1470
vn -0.6542 -0.6542 0.3794
vn -0.9252 -0.0000 0.3794
vn -0.6961 -0.6961 -0.1756
vn -0.0000 -0.9845 -0.1756
vn -0.0000 -0.9891 0.1470
vn 0.6961 -0.6961 -0.1756
vn 0.9845 -0.0000 -0.1756
vn 0.9891 -0.0000 0.1470
vn 0.6994 -0.6994 0.1470
vn 0.6961 0.6961 -0.1756
vn -0.0000 0.9845 -0.1756
vn -0.0000 0.9891 0.1470
vn 0.6994 0.6994 0.1470
vn -0.0000 -0.0000 1.0000
vn 0.6542 -0.6542 0.3794
vn -0.0000 -0.9252 0.3794
vn 0.6542 0.6542 0.3794
vn 0.9252 -0.0000 0.3794
vn -0.6542 0.6542 0.3794
vn -0.0000 0.9252 0.3794
vn -0.5657 0.5657 -0.6000
vn -0.8000 -0.0000 -0.6000
vn -0.9049 -0.1561 -0.3961
vn -0.5295 0.7502 -0.3961
vn 0.0646 0.0135 0.9978
vn -0.5657 -0.5657 -0.6000
vn -0.0000 -0.8000 -0.6000
vn -0.0000 -0.9554 -0.2952
vn -0.6756 -0.6756 -0.2952
vn 0.5657 -0.5657 -0.6000
vn 0.8000 -0.0000 -0.6000
vn 0.9049 -0.1561 -0.3961
vn 0.6756 -0.6756 -0.2952
vn 0.5657 0.5657 -0.6000
vn -0.0000 0.8000 -0.6000
vn -0.0000 0.9554 -0.2952
vn 0.5295 0.7502 -0.3961
vn -0.0000 0.9749 0.2226
vn -0.5606 0.7726 0.2979
vn -0.5907 0.6477 0.4812
vn -0.0000 0.8610 0.5087
vn -0.0760 0.0159 0.9970
vn -0.0000 -0.9749 0.2226
vn -0.6894 -0.6894 0.2226
vn 0.9427 -0.1499 0.2979
vn 0.6894 -0.6894 0.2226
vn 0.5606 0.7726 0.2979
vn -0.9427 -0.1499 0.2979
vn 0.5907 -0.6477 0.4812
vn 0.8952 -0.0000 0.4456
vn 0.7654 -0.6372 0.0900
vn 0.5036 -0.8404 0.2002
vn -0.5907 -0.6477 0.4812
vn -0.8952 -0.0000 0.4456
vn -0.0000 -0.8610 0.5087
vn 0.5907 0.6477 0.4812
vn -0.5036 0.8404 0.2002
vn -0.7654 0.6372 0.0900
vn -0.5568 0.7713 -0.3084
vn -0.3511 0.9112 -0.2156
vn -0.0000 0.9621 0.2725
vn 0.5036 0.8404 0.2002
vn -0.5036 -0.8404 0.2002
vn -0.7654 -0.6372 0.0900
vn -0.0000 -0.9621 0.2725
vn 0.7654 0.6372 0.0900
vn -0.0000 -0.9914 -0.1306
vn 0.3511 -0.9112 -0.2156
vn 0.3659 -0.9185 -0.1499
vn -0.0000 -0.9956 -0.0941
vn -0.3511 -0.9112 -0.2156
vn 0.5568 -0.7713 -0.3084
vn -0.0000 0.9914 -0.1306
vn 0.3511 0.9112 -0.2156
vn -0.5568 -0.7713 -0.3084
vn 0.5568 0.7713 -0.3084
vn -0.0000 0.9956 -0.0941
vn -0.3659 0.9185 -0.1499
vn -0.2945 0.9556 -0.0000
vn -0.0000 1.0000 -0.0000
vn 0.3659 0.9185 -0.1499
vn 0.5523 0.8202 -0.1488
vn -0.5523 0.8202 -0.1488
vn -0.3659 -0.9185 -0.1499
vn 0.5523 -0.8202 -0.1488
vn -0.5523 -0.8202 -0.1488
vn -0.3222 -0.0000 0.9467
vn -0.5024 -0.0000 0.8646
vn -0.2945 -0.9556 -0.0000
vn -0.5586 -0.8295 -0.0000
vn 0.2945 -0.9556 -0.0000
vn -0.0000 -1.0000 -0.0000
vn 0.2945 0.9556 -0.0000
vn 0.5586 0.8295 -0.0000
vn -0.5586 0.8295 -0.0000
vn 0.5586 -0.8295 -0.0000
vn 0.5024 -0.0000 0.8646
vn 0.3222 -0.0000 0.9467
vn 0.2349 -0.9720 -0.0000
vn 0.1697 0.9855 -0.0000
vn -0.0646 0.0135 0.9978
vn 0.0760 0.0159 0.9970
vn -0.0789 0.0165 0.9967
vn -0.0656 0.0137 0.9978
vn 0.0524 0.0012 0.9986
vn 0.0789 0.0165 0.9967
vn -0.0524 0.0012 0.9986
vn 0.0982 -0.0206 -0.9950
vn -0.2349 -0.9720 -0.0000
vn -0.1697 0.9855 -0.0000
vn 0.0656 0.0137 0.9978
vn -0.0982 -0.0206 -0.9950
vn -0.0686 0.9976 -0.0000
vn -0.0731 0.9973 -0.0000
vn -0.0767 0.9971 -0.0000
vn 0.4139 -0.0093 -0.9103
vn 0.5048 -0.0113 -0.8631
vn 0.0731 0.9973 -0.0000
vn 0.0767 0.9971 -0.0000
vn 0.0826 0.9966 -0.0000
vn -0.0282 -0.9996 -0.0000
vn -0.0318 -0.9995 -0.0000
vn -0.0377 -0.9993 -0.0000
vn 0.0237 -0.9997 -0.0000
vn 0.0282 -0.9996 -0.0000
vn 0.0318 -0.9995 -0.0000
vn 0.2474 0.0056 0.9689
vn -0.4139 -0.0093 -0.9103
vn -0.5048 -0.0113 -0.8631
vn -0.0237 -0.9997 -0.0000
vn 0.0686 0.9976 -0.0000
vn -0.2474 0.0056 0.9689
vn 0.9997 -0.0225 -0.0000
vn -0.9997 -0.0225 -0.0000
vn -0.3385 0.0076 0.9409
vn 0.5955 -0.0134 -0.8033
vn -0.0826 0.9966 -0.0000
vn 0.0377 -0.9993 -0.0000
vn 0.3385 0.0076 0.9409
vn -0.5955 -0.0134 -0.8033
vt 1.000000 0.500000
vt 1.000000 1.000000
vt 0.875000 1.000000
vt 0.875000 0.500000
vt 0.750000 1.000000
vt 0.750000 0.500000
vt 0.625000 1.000000
vt 0.625000 0.500000
vt 0.500000 1.000000
vt 0.500000 0.500000
vt 0.375000 1.000000
vt 0.375000 0.500000
vt 0.250000 1.000000
vt 0.250000 0.500000
vt 0.125000 1.000000
vt 0.125000 0.500000
vt 0.000000 1.000000
vt 0.000000 0.500000
vt 0.577478 0.500000
vt 0.753008 0.500000
vt 0.750000 0.215590
vt 0.919706 0.145296
vt 0.990000 -0.024410
vt 0.919706 -0.194115
vt 0.750000 -0.264410
vt 0.580294 -0.194115
vt 0.510000 -0.024410
vt 0.580294 0.145296
vt 0.446461 0.500000
vt 0.500000 0.500000
vt 0.071461 0.500000
vt 0.246991 0.500000
vt 0.928539 0.500000
vt 0.553539 0.500000
vt 0.422522 0.500000
vt 0.080294 0.419706
vt 0.010000 0.250000
vt 0.080294 0.080294
vt 0.490000 0.250000
vt 0.419706 0.419706
vt 0.419706 0.080294
vt 0.250000 0.490000
vt 0.250000 0.010000
s 1
usemtl Material
f 1/1/1 2/2/2 4/3/3 3/4/4
f 3/4/4 4/3/3 6/5/5 5/6/6
f 5/6/6 6/5/5 8/7/7 7/8/8
f 7/8/8 8/7/7 10/9/9 9/10/10
f 9/10/10 10/9/9 12/11/11 11/12/12
f 11/12/12 12/11/11 14/13/13 13/14/14
f 14/13/13 12/11/11 30/11/15 31/13/16
f 13/14/14 14/13/13 16/15/17 15/16/18
f 15/16/18 16/15/17 2/17/2 1/18/1
f 3/4/4 5/6/6 19/19/19 18/20/20
f 17/21/21 18/22/20 19/23/19 20/24/22 21/25/22 22/26/22 23/27/23 24/28/24
f 9/10/10 11/12/12 22/29/25 21/30/26
f 15/16/18 1/18/1 17/31/21 24/32/24
f 1/1/1 3/4/4 18/20/20 17/33/21
f 5/6/6 7/8/8 20/34/27 19/19/19
f 11/12/12 13/14/14 23/35/23 22/29/28
f 7/8/8 9/10/10 21/30/26 20/34/29
f 13/14/14 15/16/18 24/32/24 23/35/23
f 114/15/30 113/13/31 39/13/32 40/15/33
f 10/9/9 8/7/7 28/7/34 29/9/35
f 16/15/17 14/13/13 31/13/16 32/15/36
f 6/5/5 4/3/3 26/3/37 27/5/38
f 12/11/11 10/9/9 29/9/35 30/11/15
f 2/17/2 16/15/17 32/15/36 25/17/39
f 4/3/3 2/2/2 25/2/39 26/3/37
f 8/7/7 6/5/5 27/5/38 28/7/34
f 39/13/32 38/11/40 46/11/41 47/13/42
f 116/11/43 115/9/44 37/9/45 38/11/40
f 118/7/46 117/5/47 35/5/48 36/7/49
f 120/3/50 119/2/51 33/2/52 34/3/53
f 119/17/51 114/15/30 40/15/33 33/17/52
f 113/13/31 116/11/43 38/11/40 39/13/32
f 115/9/44 118/7/46 36/7/49 37/9/45
f 117/5/47 120/3/50 34/3/53 35/5/48
f 42/3/54 41/2/54 49/2/54 50/3/54
f 37/9/45 36/7/49 44/7/55 45/9/56
f 35/5/48 34/3/53 42/3/57 43/5/58
f 40/15/33 39/13/32 47/13/42 48/15/59
f 38/11/40 37/9/45 45/9/56 46/11/41
f 36/7/49 35/5/48 43/5/58 44/7/55
f 34/3/53 33/2/52 41/2/60 42/3/57
f 33/17/52 40/15/33 48/15/59 41/17/60
f 56/15/61 55/13/62 63/13/63 64/15/64
f 41/17/54 48/15/54 56/15/54 49/17/54
f 47/13/54 46/11/54 54/11/54 55/13/54
f 45/9/54 44/7/54 52/7/54 53/9/54
f 43/5/54 42/3/54 50/3/54 51/5/54
f 48/15/54 47/13/54 55/13/54 56/15/54
f 46/11/54 45/9/54 53/9/54 54/11/54
f 44/7/54 43/5/54 51/5/54 52/7/54
f 58/3/54 66/3/54 126/3/65 122/3/54
f 54/11/66 53/9/67 61/9/68 62/11/69
f 52/7/70 51/5/71 59/5/72 60/7/73
f 50/3/74 49/2/75 57/2/76 58/3/77
f 49/17/75 56/15/61 64/15/64 57/17/76
f 55/13/62 54/11/66 62/11/69 63/13/63
f 53/9/67 52/7/70 60/7/73 61/9/68
f 51/5/71 50/3/74 58/3/77 59/5/72
f 65/17/78 72/15/79 80/15/80 73/17/81
f 63/13/54 71/13/54 128/13/82 124/13/54
f 62/11/69 61/9/68 69/9/83 70/11/84
f 60/7/73 59/5/72 67/5/85 68/7/86
f 58/3/77 57/2/76 65/2/78 66/3/87
f 57/17/76 64/15/64 72/15/79 65/17/78
f 63/13/63 62/11/69 70/11/84 71/13/88
f 61/9/68 60/7/73 68/7/86 69/9/83
f 76/7/89 75/5/90 83/5/91 84/7/92
f 71/13/88 70/11/84 78/11/93 79/13/94
f 69/9/83 68/7/86 76/7/89 77/9/95
f 67/5/85 66/3/87 74/3/96 75/5/90
f 72/15/79 71/13/88 79/13/94 80/15/80
f 70/11/84 69/9/83 77/9/95 78/11/93
f 68/7/86 67/5/85 75/5/90 76/7/89
f 66/3/87 65/2/78 73/2/81 74/3/96
f 88/15/97 87/13/98 95/13/99 96/15/100
f 74/3/96 73/2/81 81/2/101 82/3/102
f 73/17/81 80/15/80 88/15/97 81/17/101
f 79/13/94 78/11/93 86/11/103 87/13/104
f 77/9/95 76/7/89 84/7/92 85/9/105
f 75/5/90 74/3/96 82/3/102 83/5/106
f 80/15/80 79/13/94 87/13/98 88/15/97
f 78/11/93 77/9/95 85/9/105 86/11/103
f 93/9/107 92/7/108 100/7/109 101/9/110
f 86/11/103 85/9/105 93/9/107 94/11/111
f 84/7/92 83/5/91 91/5/112 92/7/108
f 82/3/102 81/2/101 89/2/113 90/3/114
f 81/17/101 88/15/97 96/15/100 89/17/113
f 87/13/104 86/11/103 94/11/111 95/13/115
f 85/9/105 84/7/92 92/7/108 93/9/107
f 83/5/106 82/3/102 90/3/114 91/5/116
f 97/17/117 104/15/118 112/15/119 105/17/120
f 91/5/116 90/3/114 98/3/121 99/5/122
f 96/15/100 95/13/99 103/13/123 104/15/118
f 94/11/111 93/9/107 101/9/110 102/11/124
f 92/7/108 91/5/112 99/5/125 100/7/109
f 90/3/114 89/2/113 97/2/117 98/3/121
f 89/17/113 96/15/100 104/15/118 97/17/117
f 95/13/115 94/11/111 102/11/124 103/13/126
f 112/36/127 111/37/128 110/38/127
f 103/13/126 102/11/124 110/11/129 111/13/130
f 101/9/110 100/7/109 108/7/131 109/9/132
f 99/5/122 98/3/121 106/3/133 107/5/134
f 104/15/118 103/13/123 111/13/135 112/15/119
f 102/11/124 101/9/110 109/9/132 110/11/129
f 100/7/109 99/5/125 107/5/136 108/7/131
f 98/3/121 97/2/117 105/2/120 106/3/133
f 107/39/137 106/40/138 108/41/138
f 106/40/138 105/42/54 109/43/54 108/41/138
f 105/42/54 112/36/127 110/38/127 109/43/54
f 27/5/38 26/3/37 120/3/50 117/5/47
f 29/9/35 28/7/34 118/7/46 115/9/44
f 31/13/16 30/11/15 116/11/43 113/13/31
f 25/17/39 32/15/36 114/15/30 119/17/51
f 26/3/37 25/2/39 119/2/51 120/3/50
f 28/7/34 27/5/38 117/5/47 118/7/46
f 30/11/15 29/9/35 115/9/44 116/11/43
f 32/15/36 31/13/16 113/13/31 114/15/30
f 125/5/139 121/5/139 129/5/139 133/5/139
f 127/15/140 123/15/140 131/15/140 135/15/140
f 71/13/54 72/15/54 127/15/141 128/13/82
f 72/15/54 64/15/54 123/15/54 127/15/141
f 67/5/54 59/5/54 121/5/54 125/5/142
f 59/5/54 58/3/54 122/3/54 121/5/54
f 64/15/54 63/13/54 124/13/54 123/15/54
f 66/3/54 67/5/54 125/5/142 126/3/65
f 136/13/143 135/15/144 143/15/145 144/13/145
f 133/5/146 129/5/54 137/5/54 141/5/147
f 128/13/82 127/15/141 135/15/144 136/13/143
f 123/15/148 124/13/148 132/13/148 131/15/148
f 124/13/149 128/13/149 136/13/149 132/13/149
f 122/3/150 126/3/150 134/3/150 130/3/150
f 126/3/65 125/5/142 133/5/146 134/3/151
f 121/5/152 122/3/152 130/3/152 129/5/152
f 143/15/153 139/15/153 147/15/154 151/15/155
f 137/5/156 138/3/156 146/3/157 145/5/157
f 131/15/54 132/13/54 140/13/54 139/15/54
f 132/13/54 136/13/143 144/13/145 140/13/54
f 130/3/54 134/3/151 142/3/147 138/3/54
f 134/3/151 133/5/146 141/5/147 142/3/147
f 129/5/54 130/3/54 138/3/54 137/5/54
f 135/15/144 131/15/54 139/15/54 143/15/145
f 146/3/158 150/3/159 158/3/160 154/3/160
f 148/13/161 152/13/162 160/13/163 156/13/163
f 141/5/164 137/5/164 145/5/165 149/5/166
f 144/13/145 143/15/145 151/15/167 152/13/167
f 139/15/168 140/13/168 148/13/169 147/15/169
f 140/13/170 144/13/170 152/13/162 148/13/161
f 138/3/171 142/3/171 150/3/159 146/3/158
f 142/3/147 141/5/147 149/5/172 150/3/172
f 153/5/173 154/3/173 158/3/173 157/5/173
f 155/15/174 156/13/174 160/13/174 159/15/174
f 150/3/172 149/5/172 157/5/175 158/3/175
f 145/5/157 146/3/157 154/3/176 153/5/176
f 151/15/155 147/15/154 155/15/177 159/15/177
f 149/5/166 145/5/165 153/5/178 157/5/178
f 152/13/167 151/15/167 159/15/179 160/13/179
f 147/15/169 148/13/169 156/13/180 155/15/180
